<mxfile host="app.diagrams.net" agent="Mozilla/5.0 (Windows NT 10.0; Win64; x64) AppleWebKit/537.36 (KHTML, like Gecko) Chrome/130.0.0.0 Safari/537.36" version="24.8.1">
  <diagram name="Page-1" id="fma4giGeGN8WcpvD6Nwa">
    <mxGraphModel dx="1938" dy="995" grid="1" gridSize="10" guides="1" tooltips="1" connect="1" arrows="1" fold="1" page="1" pageScale="1" pageWidth="1200" pageHeight="1300" math="0" shadow="0">
      <root>
        <mxCell id="0" />
        <mxCell id="1" parent="0" />
        <mxCell id="6LLkj57qG0zcJHOoyefV-4" value="" style="shape=actor;whiteSpace=wrap;html=1;fillColor=#0050ef;strokeColor=#001DBC;fontColor=#ffffff;" parent="1" vertex="1">
          <mxGeometry x="10" y="450" width="153.33" height="230" as="geometry" />
        </mxCell>
        <mxCell id="6LLkj57qG0zcJHOoyefV-5" value="&lt;div style=&quot;font-size: 13px;&quot;&gt;&lt;font style=&quot;font-size: 14px;&quot; color=&quot;#ffffff&quot;&gt;Student&lt;/font&gt;&lt;/div&gt;" style="text;html=1;align=center;verticalAlign=middle;whiteSpace=wrap;rounded=0;" parent="1" vertex="1">
          <mxGeometry x="51.66" y="480" width="70" height="30" as="geometry" />
        </mxCell>
        <mxCell id="6LLkj57qG0zcJHOoyefV-6" value="&lt;div style=&quot;font-size: 14px;&quot;&gt;&lt;font style=&quot;font-size: 14px;&quot; color=&quot;#ffffff&quot;&gt;[Person]&lt;/font&gt;&lt;/div&gt;" style="text;html=1;align=center;verticalAlign=middle;whiteSpace=wrap;rounded=0;" parent="1" vertex="1">
          <mxGeometry x="56.66" y="500" width="60" height="30" as="geometry" />
        </mxCell>
        <mxCell id="6LLkj57qG0zcJHOoyefV-7" value="&lt;font style=&quot;font-size: 14px;&quot; color=&quot;#ffffff&quot;&gt;Zapisuje si terminy zkousek a diva se jak dopadli&lt;/font&gt;" style="text;html=1;align=center;verticalAlign=middle;whiteSpace=wrap;rounded=0;" parent="1" vertex="1">
          <mxGeometry x="21.66" y="590" width="130" height="70" as="geometry" />
        </mxCell>
        <mxCell id="6LLkj57qG0zcJHOoyefV-8" value="" style="shape=actor;whiteSpace=wrap;html=1;fillColor=#0050ef;strokeColor=#001DBC;fontColor=#ffffff;" parent="1" vertex="1">
          <mxGeometry x="475.01" y="170" width="153.33" height="230" as="geometry" />
        </mxCell>
        <mxCell id="6LLkj57qG0zcJHOoyefV-9" value="&lt;font style=&quot;font-size: 14px;&quot; color=&quot;#ffffff&quot;&gt;Ucitel&lt;/font&gt;" style="text;html=1;align=center;verticalAlign=middle;whiteSpace=wrap;rounded=0;" parent="1" vertex="1">
          <mxGeometry x="516.67" y="200" width="70" height="30" as="geometry" />
        </mxCell>
        <mxCell id="6LLkj57qG0zcJHOoyefV-10" value="&lt;div style=&quot;font-size: 14px;&quot;&gt;&lt;font style=&quot;font-size: 14px;&quot; color=&quot;#ffffff&quot;&gt;[Person]&lt;/font&gt;&lt;/div&gt;" style="text;html=1;align=center;verticalAlign=middle;whiteSpace=wrap;rounded=0;" parent="1" vertex="1">
          <mxGeometry x="521.67" y="220" width="60" height="30" as="geometry" />
        </mxCell>
        <mxCell id="6LLkj57qG0zcJHOoyefV-11" value="&lt;font style=&quot;font-size: 14px;&quot; color=&quot;#ffffff&quot;&gt;Vytvari terminy na zkousky a zapisuje hodnoceni&lt;/font&gt;" style="text;html=1;align=center;verticalAlign=middle;whiteSpace=wrap;rounded=0;" parent="1" vertex="1">
          <mxGeometry x="486.66999999999996" y="310" width="130" height="70" as="geometry" />
        </mxCell>
        <mxCell id="6LLkj57qG0zcJHOoyefV-12" value="" style="shape=actor;whiteSpace=wrap;html=1;fillColor=#0050ef;strokeColor=#001DBC;fontColor=#ffffff;" parent="1" vertex="1">
          <mxGeometry x="368.3399999999999" y="845" width="153.33" height="230" as="geometry" />
        </mxCell>
        <mxCell id="6LLkj57qG0zcJHOoyefV-13" value="&lt;font color=&quot;#ffffff&quot;&gt;Manazer&lt;/font&gt;" style="text;html=1;align=center;verticalAlign=middle;whiteSpace=wrap;rounded=0;" parent="1" vertex="1">
          <mxGeometry x="410" y="875" width="70" height="30" as="geometry" />
        </mxCell>
        <mxCell id="6LLkj57qG0zcJHOoyefV-14" value="&lt;div&gt;&lt;font color=&quot;#ffffff&quot;&gt;Person&lt;/font&gt;&lt;/div&gt;" style="text;html=1;align=center;verticalAlign=middle;whiteSpace=wrap;rounded=0;" parent="1" vertex="1">
          <mxGeometry x="414.9999999999999" y="895" width="60" height="30" as="geometry" />
        </mxCell>
        <mxCell id="6LLkj57qG0zcJHOoyefV-15" value="&lt;font color=&quot;#ffffff&quot;&gt;Dela statistiky a spravuje vyucujici&lt;/font&gt;" style="text;html=1;align=center;verticalAlign=middle;whiteSpace=wrap;rounded=0;" parent="1" vertex="1">
          <mxGeometry x="379.9999999999999" y="985" width="130" height="70" as="geometry" />
        </mxCell>
        <mxCell id="6LLkj57qG0zcJHOoyefV-16" value="" style="rounded=0;whiteSpace=wrap;html=1;fillColor=#b1ddf0;strokeColor=#10739e;" parent="1" vertex="1">
          <mxGeometry x="331.66" y="555" width="263.34" height="140" as="geometry" />
        </mxCell>
        <mxCell id="6LLkj57qG0zcJHOoyefV-18" value="&lt;div style=&quot;font-size: 14px;&quot;&gt;&lt;font style=&quot;font-size: 14px;&quot;&gt;&lt;b&gt;Zkousky v SISe&lt;/b&gt;&lt;/font&gt;&lt;/div&gt;&lt;div style=&quot;font-size: 14px;&quot;&gt;&lt;font style=&quot;font-size: 14px;&quot;&gt;&lt;b&gt;[Softwarovy System]&lt;br&gt;&lt;/b&gt;&lt;/font&gt;&lt;/div&gt;" style="text;html=1;align=center;verticalAlign=middle;whiteSpace=wrap;rounded=0;" parent="1" vertex="1">
          <mxGeometry x="386.65" y="570" width="143.35" height="30" as="geometry" />
        </mxCell>
        <mxCell id="6LLkj57qG0zcJHOoyefV-20" value="&lt;font style=&quot;font-size: 14px;&quot;&gt;Spravuje vytvareni zkousek, zapis studentu a monitoruje jejich vysledky &lt;/font&gt;" style="text;html=1;align=center;verticalAlign=middle;whiteSpace=wrap;rounded=0;" parent="1" vertex="1">
          <mxGeometry x="345.82000000000005" y="620" width="208.34" height="30" as="geometry" />
        </mxCell>
        <mxCell id="6LLkj57qG0zcJHOoyefV-22" value="" style="rounded=0;whiteSpace=wrap;html=1;fillColor=#999999;" parent="1" vertex="1">
          <mxGeometry x="820" y="555" width="310" height="115" as="geometry" />
        </mxCell>
        <mxCell id="6LLkj57qG0zcJHOoyefV-25" value="&lt;h1 align=&quot;center&quot; style=&quot;margin-top: 0px; font-size: 14px;&quot;&gt;&lt;font style=&quot;font-size: 14px;&quot;&gt;SIS&lt;br&gt;[Softwarovy system]&lt;/font&gt;&lt;/h1&gt;&lt;div&gt;Spravuje data veci, co se dejou na univerzite. Vcetne zkousek, predmetu a zapisu.&lt;br&gt;&lt;/div&gt;" style="text;html=1;whiteSpace=wrap;overflow=hidden;rounded=0;align=center;" parent="1" vertex="1">
          <mxGeometry x="885" y="560" width="180" height="120" as="geometry" />
        </mxCell>
        <mxCell id="6LLkj57qG0zcJHOoyefV-35" value="" style="endArrow=classic;html=1;rounded=0;dashed=1;dashPattern=8 8;curved=0;endFill=1;entryX=0.119;entryY=1.004;entryDx=0;entryDy=0;entryPerimeter=0;" parent="1" source="6LLkj57qG0zcJHOoyefV-32" target="6LLkj57qG0zcJHOoyefV-8" edge="1">
          <mxGeometry width="50" height="50" relative="1" as="geometry">
            <mxPoint x="415.01" y="550" as="sourcePoint" />
            <mxPoint x="505.01" y="420" as="targetPoint" />
            <Array as="points">
              <mxPoint x="420.01" y="460" />
            </Array>
          </mxGeometry>
        </mxCell>
        <mxCell id="6LLkj57qG0zcJHOoyefV-36" value="" style="endArrow=classic;html=1;rounded=0;dashed=1;dashPattern=8 8;exitX=0.5;exitY=1;exitDx=0;exitDy=0;" parent="1" edge="1">
          <mxGeometry width="50" height="50" relative="1" as="geometry">
            <mxPoint x="565.01" y="510" as="sourcePoint" />
            <mxPoint x="475.01" y="550" as="targetPoint" />
            <Array as="points" />
          </mxGeometry>
        </mxCell>
        <mxCell id="6LLkj57qG0zcJHOoyefV-39" value="" style="endArrow=none;html=1;rounded=0;dashed=1;dashPattern=8 8;curved=0;endFill=0;entryX=0.119;entryY=1.004;entryDx=0;entryDy=0;entryPerimeter=0;" parent="1" target="6LLkj57qG0zcJHOoyefV-32" edge="1">
          <mxGeometry width="50" height="50" relative="1" as="geometry">
            <mxPoint x="415.01" y="550" as="sourcePoint" />
            <mxPoint x="493.01" y="401" as="targetPoint" />
            <Array as="points" />
          </mxGeometry>
        </mxCell>
        <mxCell id="6LLkj57qG0zcJHOoyefV-32" value="Zobrazení termínu" style="text;html=1;align=center;verticalAlign=middle;whiteSpace=wrap;rounded=0;" parent="1" vertex="1">
          <mxGeometry x="390" y="460" width="60" height="30" as="geometry" />
        </mxCell>
        <mxCell id="6LLkj57qG0zcJHOoyefV-41" value="" style="endArrow=none;html=1;rounded=0;dashed=1;dashPattern=8 8;exitX=0.5;exitY=1;exitDx=0;exitDy=0;endFill=0;" parent="1" source="6LLkj57qG0zcJHOoyefV-8" edge="1">
          <mxGeometry width="50" height="50" relative="1" as="geometry">
            <mxPoint x="552.01" y="400" as="sourcePoint" />
            <mxPoint x="562.9044736842106" y="480" as="targetPoint" />
            <Array as="points" />
          </mxGeometry>
        </mxCell>
        <mxCell id="6LLkj57qG0zcJHOoyefV-42" value="&lt;div&gt;Vytvari terminy&lt;/div&gt;&lt;div&gt;a zapisuje znamky&lt;br&gt;&lt;/div&gt;" style="text;html=1;align=center;verticalAlign=middle;resizable=0;points=[];autosize=1;strokeColor=none;fillColor=none;" parent="1" vertex="1">
          <mxGeometry x="505.01" y="473" width="120" height="40" as="geometry" />
        </mxCell>
        <mxCell id="6LLkj57qG0zcJHOoyefV-50" value="" style="endArrow=classic;html=1;rounded=0;entryX=0;entryY=0.25;entryDx=0;entryDy=0;dashed=1;dashPattern=8 8;exitX=1;exitY=0.75;exitDx=0;exitDy=0;" parent="1" target="6LLkj57qG0zcJHOoyefV-16" edge="1" source="8wgAOhmGObOqkCO64CAB-1">
          <mxGeometry width="50" height="50" relative="1" as="geometry">
            <mxPoint x="310" y="490" as="sourcePoint" />
            <mxPoint x="330" y="600" as="targetPoint" />
            <Array as="points" />
          </mxGeometry>
        </mxCell>
        <mxCell id="8wgAOhmGObOqkCO64CAB-2" value="" style="endArrow=none;html=1;rounded=0;entryX=0;entryY=0.75;entryDx=0;entryDy=0;dashed=1;dashPattern=8 8;endFill=0;exitX=0.974;exitY=0.574;exitDx=0;exitDy=0;exitPerimeter=0;" edge="1" parent="1" source="6LLkj57qG0zcJHOoyefV-4" target="8wgAOhmGObOqkCO64CAB-1">
          <mxGeometry width="50" height="50" relative="1" as="geometry">
            <mxPoint x="170" y="590" as="sourcePoint" />
            <mxPoint x="332" y="590" as="targetPoint" />
            <Array as="points" />
          </mxGeometry>
        </mxCell>
        <mxCell id="8wgAOhmGObOqkCO64CAB-1" value="Zapisuje zkoušky" style="text;html=1;align=center;verticalAlign=middle;whiteSpace=wrap;rounded=0;" vertex="1" parent="1">
          <mxGeometry x="220" y="510" width="60" height="30" as="geometry" />
        </mxCell>
        <mxCell id="8wgAOhmGObOqkCO64CAB-3" value="" style="endArrow=classic;html=1;rounded=0;dashed=1;dashPattern=8 8;entryX=1.007;entryY=0.802;entryDx=0;entryDy=0;entryPerimeter=0;exitX=0;exitY=0.25;exitDx=0;exitDy=0;" edge="1" parent="1" source="8wgAOhmGObOqkCO64CAB-7" target="6LLkj57qG0zcJHOoyefV-4">
          <mxGeometry width="50" height="50" relative="1" as="geometry">
            <mxPoint x="230" y="660" as="sourcePoint" />
            <mxPoint x="190" y="640" as="targetPoint" />
            <Array as="points" />
          </mxGeometry>
        </mxCell>
        <mxCell id="8wgAOhmGObOqkCO64CAB-6" value="" style="endArrow=none;html=1;rounded=0;dashed=1;dashPattern=8 8;" edge="1" parent="1">
          <mxGeometry width="50" height="50" relative="1" as="geometry">
            <mxPoint x="270" y="660" as="sourcePoint" />
            <mxPoint x="330" y="630" as="targetPoint" />
          </mxGeometry>
        </mxCell>
        <mxCell id="8wgAOhmGObOqkCO64CAB-7" value="Čte výsledky zkoušek" style="text;html=1;align=center;verticalAlign=middle;whiteSpace=wrap;rounded=0;" vertex="1" parent="1">
          <mxGeometry x="210" y="650" width="60" height="30" as="geometry" />
        </mxCell>
        <mxCell id="8wgAOhmGObOqkCO64CAB-12" value="" style="endArrow=classic;html=1;rounded=0;entryX=0.456;entryY=-0.015;entryDx=0;entryDy=0;entryPerimeter=0;dashed=1;dashPattern=8 8;" edge="1" parent="1" source="8wgAOhmGObOqkCO64CAB-13" target="6LLkj57qG0zcJHOoyefV-12">
          <mxGeometry width="50" height="50" relative="1" as="geometry">
            <mxPoint x="401.66999999999996" y="695" as="sourcePoint" />
            <mxPoint x="451.66999999999996" y="585" as="targetPoint" />
          </mxGeometry>
        </mxCell>
        <mxCell id="8wgAOhmGObOqkCO64CAB-14" value="" style="endArrow=none;html=1;rounded=0;dashed=1;dashPattern=8 8;endFill=0;" edge="1" parent="1">
          <mxGeometry width="50" height="50" relative="1" as="geometry">
            <mxPoint x="401.66999999999996" y="695" as="sourcePoint" />
            <mxPoint x="398.66999999999996" y="755" as="targetPoint" />
          </mxGeometry>
        </mxCell>
        <mxCell id="8wgAOhmGObOqkCO64CAB-13" value="Čte statistiky" style="text;html=1;align=center;verticalAlign=middle;whiteSpace=wrap;rounded=0;" vertex="1" parent="1">
          <mxGeometry x="371.66999999999996" y="755" width="60" height="30" as="geometry" />
        </mxCell>
        <mxCell id="8wgAOhmGObOqkCO64CAB-17" value="" style="endArrow=classic;startArrow=none;html=1;rounded=0;exitX=1;exitY=0.5;exitDx=0;exitDy=0;entryX=-0.008;entryY=0.593;entryDx=0;entryDy=0;entryPerimeter=0;startFill=0;" edge="1" parent="1" source="8wgAOhmGObOqkCO64CAB-18" target="6LLkj57qG0zcJHOoyefV-22">
          <mxGeometry width="50" height="50" relative="1" as="geometry">
            <mxPoint x="660" y="630" as="sourcePoint" />
            <mxPoint x="710" y="580" as="targetPoint" />
          </mxGeometry>
        </mxCell>
        <mxCell id="8wgAOhmGObOqkCO64CAB-19" value="" style="endArrow=none;startArrow=classic;html=1;rounded=0;exitX=1;exitY=0.5;exitDx=0;exitDy=0;entryX=0;entryY=0.5;entryDx=0;entryDy=0;endFill=0;" edge="1" parent="1" source="6LLkj57qG0zcJHOoyefV-16" target="8wgAOhmGObOqkCO64CAB-18">
          <mxGeometry width="50" height="50" relative="1" as="geometry">
            <mxPoint x="595" y="625" as="sourcePoint" />
            <mxPoint x="818" y="623" as="targetPoint" />
          </mxGeometry>
        </mxCell>
        <mxCell id="8wgAOhmGObOqkCO64CAB-18" value="API na zistení a zápis dat" style="text;html=1;align=center;verticalAlign=middle;whiteSpace=wrap;rounded=0;" vertex="1" parent="1">
          <mxGeometry x="680" y="610" width="60" height="30" as="geometry" />
        </mxCell>
      </root>
    </mxGraphModel>
  </diagram>
</mxfile>
